<svg id="Layer_1" data-name="Layer 1" xmlns="http://www.w3.org/2000/svg" viewBox="0 0 200 200"><defs><style>.cls-1{fill:#fded01;}.cls-2{fill:#101832;}</style></defs><title>Artboard 3</title><path class="cls-1" d="M158.84,34.49c1.21-1.26,2.19-2.87,4.36-2.09a.56.56,0,0,1,.19.1c4.35,3.75,8.82,7.36,13,11.31,1.69,1.6.85,3.89-2,6.53-5.05-4.31-10.07-8.57-15-12.87C158.39,36.68,157.61,35.77,158.84,34.49Z"/><path class="cls-1" d="M164.77,47.33c.55.42,1,.91,1.67,1.46l-5.69,6.27-6.65-6.21,5.3-5.64C161.32,44.69,163.05,46,164.77,47.33Z"/><path class="cls-1" d="M157.57,174.2c-10.57,9.86-22.59,17-37,19.31-6.44,1-13,1.45-19.48,2.14-38.49,1.2-70.71-28.4-76.54-65.21-6.92-43.71,21.63-84,65.22-92.18,30.12-5.65,60.82,7.12,77.22,32.18a80.69,80.69,0,0,1,12.07,33,97.25,97.25,0,0,1-3,43.43C172.62,157.84,165.81,166.5,157.57,174.2Zm-117-22.61c11.56,19.19,41.11,37.83,68.81,34,6.73-.93,13.36-2.18,19.28-5.71,11.47-6.83,20.89-16,29-26.48,11.41-14.83,15.78-31.51,11.95-49.86C162.79,71.16,135,49,101.71,48.89c-2.87.24-5.76.35-8.62.73C74.46,52.08,59.37,60.87,47.79,75.57a70,70,0,0,0-15,40.08C32,128.28,33.86,140.49,40.54,151.59Z"/><path class="cls-1" d="M105.91,116.29c-.1,2.53-2.58,4.63-5.41,4.57a4.84,4.84,0,0,1-5.1-5.18c0-3.43,2-5.75,4.86-5.73C102.87,110,106,113.5,105.91,116.29Z"/><path class="cls-1" d="M112.57,18.69c.66,0,1.88-.88,1.9-1.42a33.36,33.36,0,0,0-.41-6.87c-.09-.55-1.52-1.23-2.29-1.18-.59,0-1.32,1.06-1.59,1.79a7.75,7.75,0,0,0-.06,2.51,16.16,16.16,0,0,0,.51,3.74A2.6,2.6,0,0,0,112.57,18.69Zm3.87-10.61c3.11.36,4.69,1.82,5.22,4.89a36,36,0,0,1,.51,5.87c0,3.3-1.66,4.89-4.94,4.89-5.35,0-10.94,0-16,0v.18c-5.49,0-10.73.17-16.07,0-5.94-.24-7.73-2.48-7.08-8.35.46-4.28,2.31-6.39,6.6-6.93A130.59,130.59,0,0,1,116.45,8.08Zm-15,12.27c.39,0,1.14-1.28,1.34-2.1a8.9,8.9,0,0,0-.12-2.65h0a13.92,13.92,0,0,0-.28-3.79,3.84,3.84,0,0,0-2.13-1.92c-.43-.15-1.78.73-1.79,1.16a46.06,46.06,0,0,0,.41,7.9C99,19.57,100.55,20.25,101.48,20.35ZM85.69,18.86c.09,1.31.44,2.49,2,2.29A2.38,2.38,0,0,0,90,18.37a46.56,46.56,0,0,0-.43-5.86c-.14-.79-1.28-2.07-1.75-2a3.86,3.86,0,0,0-2.29,1.86c-.38.71-.08,1.78-.08,2.69h-.08C85.48,16.34,85.6,17.6,85.69,18.86Z"/><path class="cls-1" d="M87.7,28.71,113.51,28c.14,1.84.2,3.41.34,5.29-8.92-1-17.7-.88-26.15,1.34Z"/><path class="cls-2" d="M114,25.57a35.57,35.57,0,0,1,.23,3.76c-.07,1.71.88,2.1,2.32,2.52,6.06,1.76,12.18,3.41,18.08,5.63,4.11,1.55,7.9,4,12.13,6.16l5-5.32c0-.3,0-.46-.09-.56-1.2-1.78-3.25-3.52-2-5.82,1.64-3,3.59-6.08,7.16-7a5.83,5.83,0,0,1,4.36.87c5.23,3.8,10.4,7.71,15.35,11.88,3,2.49,3,5.21.86,8.48A17.68,17.68,0,0,1,176,48c-3.79,4.4-4.91,4.53-9.39,1.18l-6.72,6.13c.51.72.79,1.18,1.13,1.59,11.55,13.92,17.75,30,19.44,47.94,1.23,13,.68,25.86-2.8,38.53-2.93,10.66-8.86,19.55-16.24,27.55-11.59,12.56-25.55,21-42.5,24.27a111.16,111.16,0,0,1-32,1.29c-6.16-.61-12.39-1.11-18.15-3.57C40.57,180.82,22.32,160.45,17,129.6c-2.63-15.13-1.76-30.11,3.57-44.53C28.8,62.69,44.18,46.76,65.94,37a125.15,125.15,0,0,1,11.91-4.23c1.13-.37,1.62-.85,1.56-2.06-.08-1.67,0-3.35,0-5-1.86-.39-3.51-.67-5.13-1.09a5,5,0,0,1-4-4.87,60.41,60.41,0,0,1,.16-10.12C71.16,4,74.59,1.09,80.68.25a15.21,15.21,0,0,1,2.1-.2c10.54,0,21.1-.22,31.63.22,5.17.22,7.66,3.27,8,8.43a70.53,70.53,0,0,1-.11,10.54c-.31,4-2.27,5.77-6.36,6.2C115.43,25.5,114.87,25.52,114,25.57ZM97.66,192.69c6.5-.7,13-1.12,19.48-2.14,14.46-2.29,26.48-9.45,37-19.31,8.25-7.69,15-16.36,18.45-27.32a97.26,97.26,0,0,0,3-43.43,80.69,80.69,0,0,0-12.07-33c-16.4-25.06-47.09-37.83-77.22-32.18C42.75,43.48,14.2,83.77,21.12,127.48,27,164.29,59.16,193.89,97.66,192.69ZM97.78,21v-.18c5.35,0,10.69,0,16,0,3.28,0,5-1.59,5-4.89a36.28,36.28,0,0,0-.51-5.87c-.53-3.07-2.11-4.52-5.22-4.89a130.71,130.71,0,0,0-31.77.51c-4.29.54-6.14,2.65-6.6,6.92-.64,5.87,1.11,8.11,7.05,8.36C87.08,21.12,92.43,21,97.78,21ZM171,47.38c2.86-2.64,3.69-4.94,2-6.54-4.16-3.95-8.63-7.56-13-11.31a.59.59,0,0,0-.19-.1c-2.16-.78-3.14.83-4.36,2.09s-.45,2.19.47,3C160.9,38.81,165.92,43.07,171,47.38ZM84.12,31.65c8.69-2.23,17.34-2.32,26.25-1.34L110,25l-25.87.73ZM156,40.26l-5.3,5.64,6.65,6.21,5.7-6.26c-.63-.56-1.13-1-1.67-1.47C159.67,43,157.94,41.73,156,40.26Z"/><path class="cls-2" d="M98.33,45.93c33.24.08,61.08,22.27,67.85,54.65,3.84,18.36-.54,35-11.95,49.87-8.1,10.53-17.51,19.65-29,26.48-5.92,3.53-12.56,4.78-19.28,5.71-27.7,3.83-57.25-14.81-68.81-34-6.69-11.1-8.53-23.31-7.8-36a70,70,0,0,1,15-40.07C56,57.91,71.07,49.12,89.71,46.66,92.56,46.28,95.45,46.17,98.33,45.93Zm-64.48,72c.32,7,.7,14.7,3.86,21.88,4,9.13,10.63,16.15,18.28,22.32,13.77,11.11,28.91,18.06,47.19,16,9.16-1,17.82-3.15,25.34-8.85a107.93,107.93,0,0,0,20.77-20.61c11-14.4,15.58-30.63,12.49-48.61C159,83.91,149.5,71.85,136.68,62.39c-8.91-6.57-19.28-10.06-30.33-11.21-20.35-2.12-38.18,3.54-53,17.77C39.69,82.09,34.09,98.65,33.85,117.93Z"/><path class="cls-2" d="M82.06,12.12c0-.91-.3-2,.08-2.69a3.84,3.84,0,0,1,2.3-1.86c.47-.09,1.6,1.19,1.75,2a47.91,47.91,0,0,1,.43,5.86,2.39,2.39,0,0,1-2.25,2.78c-1.61.2-2-1-2-2.29s-.22-2.51-.33-3.77Z"/><path class="cls-2" d="M99.31,12.54a9.4,9.4,0,0,1,.12,2.71c-.2.81-.95,2.16-1.34,2.12-.93-.1-2.46-.76-2.56-1.39a45.66,45.66,0,0,1-.41-7.9c0-.43,1.36-1.31,1.79-1.15A3.74,3.74,0,0,1,99,8.8a13.58,13.58,0,0,1,.28,3.74Z"/><path class="cls-2" d="M106.74,10.56A7.61,7.61,0,0,1,106.8,8c.27-.73,1-1.75,1.59-1.79.77,0,2.19.63,2.29,1.18a33.38,33.38,0,0,1,.42,6.87c0,.53-1.24,1.42-1.9,1.41a2.61,2.61,0,0,1-1.94-1.43A16.38,16.38,0,0,1,106.74,10.56Z"/><path class="cls-2" d="M103,105l4.25-4.39q10.17-10.44,20.35-20.87c1.12-1.15,2.22-2.69,4-1,1.2,1.15.91,2.56-.84,4.34Q119,95.06,107.21,107a2.34,2.34,0,0,0-.71,2.9c1.78,4.79.31,9.11-3.61,11.08-4.76,2.4-11.14,1.15-13.78-2.7-2.32-3.38-1.5-9.58,1.69-12.92,2.88-3,7-3.43,11-1.08Zm-11,7.72a4.84,4.84,0,0,0,5.1,5.18c2.83.06,5.31-2,5.41-4.57.11-2.79-3-6.33-5.65-6.35C94,107,92.06,109.29,92,112.72Z"/><path class="cls-2" d="M75.72,69.77c-.23.29-.6,1.14-1.24,1.49-13.61,7.52-20,20.05-23.79,34.34-.16.61-.3,1.23-.48,1.83-.38,1.26-1.19,1.94-2.53,1.55s-2.11-1.21-1.77-2.67c3.8-16.16,10.85-30.14,25.93-38.74C74,66.32,75.72,67,75.72,69.77Z"/><path class="cls-2" d="M49,119.56A8.54,8.54,0,0,1,46.49,121c-1.28.25-2.11-.57-2.13-1.93s.85-2.34,2.2-2.12c.87.14,1.61,1,2.41,1.57Z"/></svg>