<svg id="Layer_1" data-name="Layer 1" xmlns="http://www.w3.org/2000/svg" viewBox="0 0 1440 900"><defs><style>.cls-1{fill:#fded01;}.cls-2{fill:#101832;}</style></defs><title>Artboard 1</title><path class="cls-1" d="M791.94,357a98.59,98.59,0,0,1-3,44c-3.44,11.11-10.34,19.89-18.7,27.69-10.71,10-22.9,17.25-37.56,19.57-6.53,1-13.16,1.47-19.75,2.17-39,1.21-71.68-28.79-77.59-66.11-7-44.31,21.93-85.16,66.12-93.45,30.54-5.73,61.66,7.22,78.28,32.62A81.8,81.8,0,0,1,791.94,357Zm-21.69,50.64c11.56-15,16-31.94,12.11-50.55-6.86-32.83-35.09-55.32-68.78-55.41-2.91.24-5.84.36-8.74.74-18.89,2.49-34.18,11.41-45.93,26.31a70.91,70.91,0,0,0-15.25,40.63c-.75,12.81,1.13,25.19,7.9,36.45,11.72,19.45,41.67,38.35,69.76,34.47,6.82-.94,13.54-2.21,19.55-5.78C752.49,427.56,762,418.31,770.25,407.63Z"/><path class="cls-1" d="M789.26,296.53c1.71,1.62.86,3.95-2,6.62-5.12-4.37-10.21-8.69-15.26-13-.93-.8-1.72-1.73-.48-3s2.22-2.91,4.42-2.12a.57.57,0,0,1,.19.1C780.51,288.86,785,292.53,789.26,296.53Z"/><path class="cls-1" d="M777.51,300.1c.55.43,1.05.92,1.69,1.48l-5.77,6.35-6.74-6.29,5.37-5.72C774,297.42,775.77,298.75,777.51,300.1Z"/><path class="cls-1" d="M734.32,271.22c0,3.35-1.68,5-5,5-5.42,0-11.09,0-16.23,0v.18c-5.57,0-10.88.18-16.29,0-6-.24-7.83-2.52-7.18-8.47.47-4.34,2.34-6.47,6.69-7a132.39,132.39,0,0,1,32.21-.51c3.15.37,4.76,1.85,5.29,5A36.48,36.48,0,0,1,734.32,271.22Zm-7.81-1.59a33.82,33.82,0,0,0-.42-7c-.09-.56-1.54-1.25-2.32-1.2-.6,0-1.34,1.08-1.61,1.81a7.86,7.86,0,0,0-.06,2.54,16.38,16.38,0,0,0,.52,3.79,2.64,2.64,0,0,0,2,1.45C725.26,271.07,726.49,270.17,726.51,269.63Zm-11.82,1a9,9,0,0,0-.12-2.69h0a14.14,14.14,0,0,0-.28-3.84,3.88,3.88,0,0,0-2.16-1.95c-.44-.15-1.81.74-1.82,1.17a46.72,46.72,0,0,0,.42,8c.1.63,1.65,1.32,2.6,1.42C713.74,272.78,714.5,271.44,714.7,270.62Zm-15.28,2.93a2.42,2.42,0,0,0,2.28-2.81,47.2,47.2,0,0,0-.43-5.94c-.15-.8-1.29-2.1-1.77-2a3.91,3.91,0,0,0-2.33,1.89c-.39.72-.08,1.8-.08,2.73H697c.12,1.27.24,2.54.33,3.82S697.78,273.76,699.42,273.55Z"/><path class="cls-1" d="M725.54,280.48c.14,1.86.2,3.46.34,5.36-9-1-17.94-.9-26.51,1.36v-6Z"/><path class="cls-1" d="M712.11,363.58c2.64,0,5.84,3.61,5.73,6.43-.1,2.57-2.62,4.69-5.48,4.63a4.91,4.91,0,0,1-5.17-5.25C707.22,365.91,709.21,363.56,712.11,363.58Z"/><path class="cls-1" d="M306.48,279.83,323.91,376l-43.08,7.8-17.42-96.2-37,6.69-6.15-34,117.18-21.22,6.15,34Zm73.71,86L356.62,235.65l43.08-7.8L423.28,358ZM554,223.12l-19.54,34C524.74,248,511.8,243.22,501.77,245c-15.6,2.83-24.67,17.32-21.55,34.59,3.16,17.46,16.78,28,32.38,25.21,9.29-1.68,19.94-9.56,26.84-20.2l29.69,22c-11.63,18.41-31.88,32.62-51.93,36.26-39.93,7.23-74-15.94-81.07-54.75-6.93-38.26,17.74-71.49,58.6-78.89C514.59,205.7,538,211.05,554,223.12Z"/><path class="cls-2" d="M265.46,379.42,248,283.23l-37,6.69L203.86,250l123.08-22.29,7.22,39.88L297,274.36l17.42,96.2ZM252.87,276.26l17.42,96.2,37.19-6.73-17.42-96.2,37.14-6.73-5.09-28.09L210.83,254.87,215.91,283Zm112,85.17L340.19,225.35l49-8.87,24.65,136.08ZM347.16,230.18l22.51,124.28,37.19-6.73L384.35,223.44ZM490,339.35a71.4,71.4,0,0,1-40.26-11.93c-15.46-10.45-25.92-27-29.47-46.59-7.25-40,18.41-74.66,61-82.38,20.85-3.78,45,1.87,61.61,14.37l2.11,1.59L522.22,254l-2.76-2.61c-8.93-8.43-21-13-30.1-11.34a23.16,23.16,0,0,0-15.79,10.52c-3.54,5.67-4.72,13-3.34,20.59s5.1,14.24,10.42,18.38A23,23,0,0,0,499.12,294c8.56-1.55,18.54-9.14,24.86-18.88l1.74-2.68L560.2,298l-1.48,2.35c-12.06,19.09-33.23,33.86-53.93,37.61A83.24,83.24,0,0,1,490,339.35Zm4.6-136.06a68.84,68.84,0,0,0-12.25,1.07c-39.18,7.1-62.81,38.81-56.18,75.41,3.26,18,12.82,33.15,26.93,42.69s32.14,13,50.66,9.64c18.29-3.31,37-16,48.41-32.59L527.19,281c-7.25,9.9-17.58,17.19-27,18.9A28.92,28.92,0,0,1,477,294.31c-6.49-5-11-12.87-12.63-22s-.17-17.9,4.16-24.83a29.08,29.08,0,0,1,19.8-13.24c10.05-1.82,22.45,2.22,32.45,10.39l16.37-28.51C525.19,207.88,509.6,203.29,494.56,203.29Z"/><path class="cls-1" d="M951.3,299.13l-18.53,90.13L892.41,381l18.53-90.13-34.62-7.12,6.54-31.84,109.79,22.57-6.54,31.84Zm61.61,88.65-9.81,15.94L961.7,395.2l76.57-111.38,41.41,8.51,24.52,132.16-43-8.83-2.55-18.48ZM1049.49,328l-20.21,33,25.4,5.22Zm198.11,20.78-29,22.87c-5.27-11.42-14.91-20.11-24.3-22-14.62-3-27.62,6.47-31,22.65-3.36,16.36,4.82,30.37,19.43,33.37,8.7,1.79,20.77-1.35,30.53-8.23l18.2,29.67c-16.61,12-39.28,17.31-58.07,13.45-37.41-7.69-59.08-39.89-51.6-76.25,7.37-35.84,40.57-56.22,78.85-48.35C1219.3,319.76,1237.87,332.65,1247.6,348.79Z"/><path class="cls-2" d="M1177.45,433.33A65.45,65.45,0,0,1,1164.3,432c-39.1-8-61.79-41.6-53.94-79.79,3.73-18.16,14.1-33.26,29.2-42.52s33.93-12.12,53.19-8.16c19.58,4,38.77,17.47,48.89,34.25l1.37,2.26-34.06,26.86-1.59-3.45c-4.82-10.44-13.73-18.62-22.18-20.36a21.62,21.62,0,0,0-17.34,3.62c-5,3.68-8.62,9.62-10.08,16.7s-.54,14.14,2.63,19.58a21.48,21.48,0,0,0,14.47,10.25c8,1.64,19.3-1.47,28.2-7.75l2.61-1.84L1227,416.46l-2.25,1.63A83,83,0,0,1,1177.45,433.33Zm-1.39-127.5a63.52,63.52,0,0,0-33.37,9c-13.67,8.38-23.07,22.1-26.46,38.61-7.15,34.79,13.57,65.38,49.27,72.71,17,3.5,37.7-.95,53.43-11.36l-15.1-24.62c-9.81,6.06-21.37,8.78-30.19,7A27.4,27.4,0,0,1,1155.2,384c-3.92-6.72-5.1-15.17-3.32-23.81s6.16-15.77,12.41-20.34a27.55,27.55,0,0,1,22.08-4.65c9.42,1.94,18.82,9.77,24.71,20.36l24-18.93c-9.6-14.37-26.41-25.72-43.55-29.24A76.9,76.9,0,0,0,1176.06,305.84Zm-76.65,111.06L1050,406.74l-2.55-18.48-41.63-8.56L996,395.64l-47.89-9.84,80.26-116.74,45.33,9.32Zm-44.05-15.18,36.54,7.51-23.33-125.8-37.49-7.71-72.89,106,34.93,7.18,9.8-15.94,49.89,10.26ZM926.57,381.36l-46.24-9.5,18.53-90.13-34.62-7.12L872,236.9l115.66,23.77-7.75,37.71-34.8-7.15Zm-39.16-14.17,34.5,7.09,18.53-90.13,34.8,7.15,5.34-26L876.65,244l-5.34,26,34.62,7.12Zm162.28-8.58L1016,351.68l26.83-43.84Zm-24.16-11.09,17.08,3.51-3.49-25.71Z"/><path class="cls-1" d="M215.83,517c59.34,0,97.88,35.19,97.88,89.91s-39.31,90.17-100.19,90.17h-78.1V517ZM195,650.89h22.35c21.58,0,35.45-17,35.45-43.41,0-26.72-15.16-44.19-38.28-44.19H195ZM535.26,607c0,53.43-41.62,92.74-98.91,92.74s-98.9-39-98.9-92.74c0-53.43,41.62-91.71,98.9-91.71S535.26,553.78,535.26,607Zm-136.67.26c0,24.66,18,42.9,38.53,42.9s37-18.24,37-42.9-16.44-42.39-37-42.39C416.32,564.83,398.59,582.55,398.59,607.21ZM756.81,607c0,53.43-41.62,92.74-98.9,92.74S559,660.65,559,607c0-53.43,41.62-91.71,98.91-91.71S756.81,553.78,756.81,607Zm-136.67.26c0,24.66,18,42.9,38.53,42.9s37-18.24,37-42.9-16.44-42.39-37-42.39C637.87,564.83,620.15,582.55,620.15,607.21ZM871.5,517c59.34,0,97.88,35.19,97.88,89.91s-39.31,90.17-100.19,90.17h-78.1V517ZM850.69,650.89H873c21.58,0,35.45-17,35.45-43.41,0-26.72-15.16-44.19-38.28-44.19H850.69Zm287.57-3.34v49.58H1003.65V517h59.6v130.5Zm86.68-85.29v22.09h84.26v45.21h-84.26v22.35H1320v45.21H1165.35V517h152.34v45.21Z"/><path class="cls-2" d="M642.49,689.41c-59.29,0-102.33-40.44-102.33-96.17,0-55.13,43-95.14,102.33-95.14s102.33,40,102.33,95.14c0,26.83-10.32,51.3-29,68.9S671,689.41,642.49,689.41Zm0-184.45c-26.88,0-51.25,8.84-68.61,24.91S547,568.4,547,593.25c0,51.75,40.16,89.31,95.48,89.31S738,645,738,593.25C738,542.09,697.81,505,642.49,505ZM420.93,689.41c-59.29,0-102.33-40.44-102.33-96.17,0-55.13,43-95.14,102.33-95.14s102.33,40,102.33,95.14c0,26.83-10.32,51.3-29,68.9S449.48,689.41,420.93,689.41Zm0-184.45c-26.88,0-51.25,8.84-68.61,24.91s-26.87,38.54-26.87,63.38c0,51.75,40.15,89.31,95.48,89.31s95.48-37.56,95.48-89.31C516.41,542.09,476.26,505,420.93,505ZM1308,686.84H1146.5V499.91h159.19V552h-92.74v15.24h84.26v52.07h-84.26v15.5H1308ZM1153.35,680h147.8V641.63H1206.1v-29.2h84.26V574.07H1206.1V545.12h92.74V506.76H1153.35Zm-27.08,6.85H984.8V499.91h66.45v130.5h75ZM991.65,680h127.76V637.26h-75V506.76H991.65Zm-137.89,6.85H772.24V499.91h83.83c61.54,0,101.3,36.64,101.3,93.34,0,27.85-9.82,51.42-28.4,68.15S884.49,686.84,853.76,686.84ZM779.09,680h74.67c58.78,0,96.76-34,96.76-86.75,0-52.54-37.07-86.49-94.45-86.49h-77Zm-581,6.85H116.57V499.91h83.83c61.54,0,101.3,36.64,101.3,93.34,0,27.85-9.82,51.42-28.4,68.15S228.82,686.84,198.1,686.84ZM123.43,680H198.1c58.78,0,96.76-34,96.76-86.75,0-52.54-37.07-86.49-94.45-86.49h-77ZM857.62,640.6H831.84V546.15h23c24.94,0,41.7,19.13,41.7,47.61S881.23,640.6,857.62,640.6Zm-18.92-6.85h18.92c19.75,0,32-15.32,32-40S876,553,854.79,553h-16.1ZM201.95,640.6H176.17V546.15h23c24.94,0,41.7,19.13,41.7,47.61S225.57,640.6,201.95,640.6ZM183,633.75h18.93c19.75,0,32-15.32,32-40S220.3,553,199.12,553H183Zm460.23,6.08c-23.14,0-42-20.78-42-46.33s18.43-45.81,42-45.81c23,0,40.42,19.7,40.42,45.81S665.92,639.83,643.26,639.83Zm0-85.29c-19.69,0-35.11,17.11-35.11,39S623.9,633,643.26,633c19.14,0,33.57-17,33.57-39.48C676.82,571.29,662.39,554.54,643.26,554.54ZM421.7,639.83c-23.14,0-42-20.78-42-46.33s18.43-45.81,42-45.81c23,0,40.42,19.7,40.42,45.81S444.37,639.83,421.7,639.83Zm0-85.29c-19.69,0-35.11,17.11-35.11,39S402.34,633,421.7,633c19.14,0,33.57-17,33.57-39.48C455.27,571.29,440.84,554.54,421.7,554.54Z"/><path class="cls-2" d="M726.05,278a36.06,36.06,0,0,1,.23,3.81c-.08,1.73.9,2.13,2.36,2.55,6.15,1.78,12.35,3.45,18.33,5.71,4.17,1.57,8,4,12.3,6.24l5.08-5.39c0-.31,0-.47-.1-.57-1.22-1.8-3.3-3.57-2-5.9,1.66-3,3.64-6.17,7.26-7.14a5.91,5.91,0,0,1,4.42.88c5.31,3.85,10.54,7.82,15.56,12,3,2.52,3,5.28.88,8.59a17.92,17.92,0,0,1-1.41,1.88c-3.84,4.46-5,4.6-9.52,1.2l-6.81,6.21c.51.73.8,1.2,1.14,1.62,11.71,14.12,18,30.43,19.71,48.6,1.24,13.18.69,26.22-2.84,39.06-3,10.81-9,19.82-16.46,27.93-11.75,12.73-25.9,21.32-43.09,24.6a112.69,112.69,0,0,1-32.4,1.31c-6.24-.62-12.56-1.12-18.4-3.62-28.66-12.23-47.17-32.87-52.59-64.15-2.66-15.34-1.79-30.53,3.61-45.15,8.38-22.69,24-38.84,46-48.69a126.87,126.87,0,0,1,12.07-4.29c1.15-.38,1.64-.86,1.58-2.09-.09-1.7,0-3.4,0-5-1.88-.4-3.56-.68-5.2-1.11a5.06,5.06,0,0,1-4-4.94,61.24,61.24,0,0,1,.17-10.25c.73-5.72,4.21-8.72,10.39-9.58a15.41,15.41,0,0,1,2.13-.2c10.69,0,21.39-.22,32.07.23,5.24.22,7.76,3.32,8.15,8.55a71.5,71.5,0,0,1-.11,10.68c-.32,4.09-2.3,5.85-6.45,6.29C727.49,278,726.92,278,726.05,278ZM709.47,447.46c6.58-.71,13.21-1.14,19.75-2.17,14.66-2.32,26.84-9.58,37.56-19.58,8.36-7.8,15.26-16.58,18.7-27.69a98.61,98.61,0,0,0,3-44,81.8,81.8,0,0,0-12.23-33.48c-16.62-25.4-47.74-38.35-78.28-32.62-44.19,8.29-73.14,49.14-66.12,93.45C637.79,418.66,670.45,448.67,709.47,447.46Zm.12-174.11v-.18c5.42,0,10.84,0,16.26,0,3.33,0,5.07-1.61,5-5a36.78,36.78,0,0,0-.51-6c-.54-3.11-2.14-4.59-5.29-5a132.51,132.51,0,0,0-32.21.51c-4.35.55-6.22,2.68-6.69,7-.65,6,1.12,8.23,7.15,8.47C698.74,273.53,704.17,273.35,709.59,273.35Zm74.21,26.8c2.9-2.68,3.74-5,2-6.63-4.22-4-8.75-7.66-13.16-11.46a.6.6,0,0,0-.19-.1c-2.19-.79-3.19.84-4.42,2.12s-.45,2.22.48,3C773.59,291.46,778.67,295.78,783.8,300.15Zm-88.06-16c8.81-2.26,17.58-2.35,26.61-1.36l-.39-5.36-26.22.74Zm72.89,8.73-5.38,5.71,6.74,6.29,5.77-6.35c-.64-.56-1.14-1.06-1.69-1.49C772.34,295.75,770.58,294.42,768.63,292.93Z"/><path class="cls-2" d="M710.15,298.68c33.7.08,61.92,22.58,68.78,55.41,3.89,18.61-.55,35.51-12.11,50.55-8.21,10.68-17.76,19.92-29.38,26.85-6,3.58-12.73,4.84-19.55,5.78-28.08,3.88-58-15-69.76-34.47-6.78-11.25-8.65-23.63-7.9-36.45a70.92,70.92,0,0,1,15.25-40.63c11.75-14.9,27-23.81,45.93-26.31C704.31,299,707.24,298.92,710.15,298.68Zm-65.37,73c.33,7.13.71,14.9,3.92,22.18,4.08,9.25,10.78,16.37,18.53,22.62,14,11.26,29.31,18.31,47.84,16.26,9.29-1,18.06-3.19,25.68-9a109.42,109.42,0,0,0,21.06-20.9c11.12-14.59,15.8-31.05,12.67-49.28C771.66,337.18,762,325,749,315.37c-9-6.66-19.54-10.2-30.75-11.37-20.63-2.15-38.71,3.59-53.71,18C650.7,335.34,645,352.12,644.78,371.67Z"/><path class="cls-2" d="M693.66,264.4c0-.92-.31-2,.08-2.73a3.9,3.9,0,0,1,2.33-1.89c.47-.09,1.62,1.21,1.77,2a48.57,48.57,0,0,1,.43,5.95,2.42,2.42,0,0,1-2.28,2.81c-1.63.2-2-1-2.08-2.32s-.22-2.55-.33-3.82Z"/><path class="cls-2" d="M711.15,264.82a9.53,9.53,0,0,1,.12,2.74c-.2.82-1,2.19-1.35,2.15-.94-.1-2.5-.77-2.6-1.41a46.29,46.29,0,0,1-.42-8c0-.43,1.38-1.33,1.82-1.17a3.79,3.79,0,0,1,2.16,1.9,13.77,13.77,0,0,1,.28,3.79Z"/><path class="cls-2" d="M718.68,262.82a7.71,7.71,0,0,1,.06-2.54c.27-.74,1-1.78,1.61-1.82.78-.05,2.22.64,2.32,1.2a33.84,33.84,0,0,1,.42,7c0,.54-1.25,1.44-1.92,1.43a2.65,2.65,0,0,1-2-1.45A16.6,16.6,0,0,1,718.68,262.82Z"/><path class="cls-2" d="M714.93,358.56l4.31-4.45q10.31-10.58,20.64-21.16c1.14-1.16,2.25-2.73,4.07-1,1.22,1.16.92,2.6-.85,4.4q-12,12.13-23.94,24.22a2.37,2.37,0,0,0-.72,2.94c1.81,4.86.31,9.23-3.66,11.23-4.83,2.44-11.29,1.17-14-2.74-2.35-3.43-1.52-9.71,1.72-13.1,2.92-3.06,7.14-3.47,11.16-1.1Zm-11.18,7.83a4.9,4.9,0,0,0,5.17,5.25c2.87.06,5.38-2.06,5.48-4.63.11-2.83-3.09-6.42-5.73-6.43C705.78,360.56,703.79,362.91,703.75,366.39Z"/><path class="cls-2" d="M687.23,322.84c-.24.3-.61,1.16-1.25,1.51-13.8,7.63-20.23,20.33-24.12,34.81-.17.62-.3,1.25-.49,1.86-.39,1.27-1.21,2-2.57,1.57s-2.14-1.22-1.79-2.7c3.85-16.38,11-30.56,26.29-39.28C685.53,319.35,687.23,320.08,687.23,322.84Z"/><path class="cls-2" d="M660.09,373.32a8.65,8.65,0,0,1-2.49,1.46c-1.3.25-2.13-.58-2.16-2s.86-2.37,2.23-2.15c.88.14,1.63,1,2.45,1.59Z"/></svg>